<svg width="317" height="181" viewBox="0 0 317 181" fill="none" xmlns="http://www.w3.org/2000/svg">
<path d="M160 59C174.082 87.1648 181.115 118.69 192.889 147.889C196.543 156.951 202.822 168.91 203.611 178.778C203.642 179.167 197.53 169.674 196.444 168C188.352 155.515 181.56 142.216 174.333 129.222C165.753 113.795 156.827 98.7135 147.333 83.8333C141.743 75.0706 135.63 66.6688 133.667 56.2222C130.317 38.3973 132.957 15.2577 151 6.11111C166.04 -1.51349 185.083 -0.134756 188.389 20.2778C192.616 46.381 174.772 72.1302 159.778 91.3333C151.694 101.686 143.145 108.555 132.833 115.833C131.669 116.655 140.338 108.76 140.889 108.222C164.049 85.5883 193.19 71.4971 224 62.1667C247.561 55.0318 271.881 50.3291 296.444 48.5555C298.597 48.4001 310.566 46.8307 313.278 50.5C316.323 54.6196 313.463 56.2174 309.889 58.6667C301.022 64.7418 290.815 69.1189 280.944 73.1111C239.296 89.9564 195.959 102.757 152.889 115.333C107.352 128.63 61.5288 141.431 15.3333 152.278C10.9173 153.315 6.51362 154.549 2 155" stroke="white" stroke-width="3" stroke-linecap="round"/>
</svg>
