<svg width="385" height="230" viewBox="0 0 385 230" fill="none" xmlns="http://www.w3.org/2000/svg">
<path d="M181 42C184.817 62.9087 189.365 82.9195 196.722 102.889C202.341 118.139 208.841 133.255 213 149C215.544 158.632 218.026 169.29 219.556 179.111C221.083 188.918 222.92 199.028 223.778 208.889C224.19 213.635 224.935 219.616 222.5 223.944C220.901 226.787 218.892 228.751 215.611 227.111C212.15 225.381 211.521 224.529 208.944 220.5C199.694 206.034 193.313 189.453 186.778 173.667C181.015 159.747 175.576 145.509 172.222 130.778C168.207 113.14 168 94.8109 168 76.8333C168 50.2494 175.901 17.4152 203.111 6.61111C225.328 -2.21038 249.556 0.510834 267.389 16.7778C288.83 36.3353 292.682 73.9002 269.667 94C243.958 116.452 203.584 117.936 171.667 125C167.745 125.868 164.815 126.58 161 127.556C160.09 127.788 159.187 128.044 158.278 128.278C156.74 128.673 156.654 128.763 158.333 127.778C170.115 120.862 186.059 116.861 198.778 113.778C238.626 104.118 279.193 98.204 320.111 95.7778C339.575 94.6237 349.909 94.859 368 95.5C372.941 95.6751 378.822 93.8112 382.778 96.7778C383.051 96.9826 382.117 96.9633 381.778 97C378.305 97.3754 374.986 98.2331 371.611 99.1667C315.337 114.732 259.418 129.389 202.111 141.111C135.652 154.705 68.4505 164.71 2 178" stroke="white" stroke-width="3" stroke-linecap="round"/>
</svg>
